<svg width="61" height="61" viewBox="0 0 61 61" xmlns="http://www.w3.org/2000/svg">
<path d="M61 0L30.5 30.5L0 61V33.7973L33.7973 0H61Z" fill="#D22856"/>
<path d="M21.9192 33.3147L20.9863 34.2476L15.9785 33.0392L17.1531 38.0808L16.2831 38.9509L14.9393 32.9087L9.37565 31.7244L10.2844 30.8157L14.8378 31.8598L13.8082 27.2919L14.6831 26.417L15.8384 31.9516L21.9192 33.3147ZM15.8722 25.2279L16.6408 24.4593L20.5706 28.3892C21.2956 29.1142 21.9289 29.7925 22.4702 30.4242L22.5089 30.3855L20.5754 20.5247L21.4745 19.6256L28.5414 26.6925L27.768 27.4659L23.8769 23.5748C23.2291 22.927 22.5766 22.2197 21.9192 21.4527L21.8757 21.4962L23.8382 31.3957L22.9391 32.2948L15.8722 25.2279ZM32.6549 22.579L31.8332 23.4007L25.4962 17.0637L23.2581 19.3017L22.5283 18.5718L27.826 13.2741L28.5559 14.004L26.3179 16.242L32.6549 22.579Z" fill="white"/>
</svg>
